# xmcd
#
# Track frame offsets:
#	150
#	14645
#	26502
#	41800
#	55455
#	72352
#	83517
#	96295
#	110815
#	126992
#	137502
#	149875
#	169712
#	182532
#	193870
#	205302
#	218465
#	227917
#	238715
#	250602
#
# Disc length: 3634
#
# Revision: 2
# Processed by: cddbd v1.5.2PL0 Copyright (c) Steve Scherf et al.
# Submitted via: inCDius 1.1
# Normalized: r0:DSETVAR1,TDELIM( - ),TSWAP
#
DISCID=2b0e3014
DTITLE=Various Artist - Easy-Listening Country Pride and Patriotism, Country Style
DYEAR=1995
DGENRE=Country
TTITLE0=Lee Greenwood - God Bless the U.S. A.
TTITLE1=Donna Fargo - U.S. of A.
TTITLE2=Glenn Campbell - God Must Have Blessed America
TTITLE3=The Oak Ridge Boys - An American Family
TTITLE4=Walon Jennings - America
TTITLE5=Charlie Rich - America The Beautiful
TTITLE6=The The Nasville String Band/The - Battle Hymn of the Republic
TTITLE7=Eddie Rabbitt - American Boy
TTITLE8=Randy Travis - Point of LIght
TTITLE9=Lee Greenwood - God Bless America
TTITLE10=Merle Haggard - Okie From Muskogee
TTITLE11=Moe Bandy - Americana
TTITLE12=Bobby Bare - God Bless America Again
TTITLE13=Sgt. Barry Sadler - The Ballad of the Green Berets
TTITLE14=Johnny Horton - The Battle of New Orleans
TTITLE15=Tennessee Earnie Ford - The Ballad of Davy Crockett
TTITLE16=Chet Atkins - Yankee Doodle Dixie
TTITLE17=Floyd Cramer - The Star Spangled Banner
TTITLE18=Elton Britt - There's a Star-Spangled Banner Waving Somewhere
TTITLE19=Tex Ritter - The Americans (A Canadian's Opinion)
EXTD=
EXTT0=
EXTT1=
EXTT2=
EXTT3=
EXTT4=
EXTT5=
EXTT6=
EXTT7=
EXTT8=
EXTT9=
EXTT10=
EXTT11=
EXTT12=
EXTT13=
EXTT14=
EXTT15=
EXTT16=
EXTT17=
EXTT18=
EXTT19=
PLAYORDER=
